<svg width="100" height="100" viewBox="0 0 100 100" xmlns="http://www.w3.org/2000/svg">
  <g fill="none" fill-rule="evenodd">
    <polygon
      points="25,5 75,5 95,25 95,75 75,95 25,95 5,75 5,25"
      style="fill: rgb(129, 149, 0)"
    />
    <polygon points="50,50 5,25 5,75" style="fill: rgb(37, 157, 148)" />
    <polygon points="50,50 5,75 25,95" style="fill: rgb(43, 144, 216)" />
    <polygon points="50,50 25,95 75,95" style="fill: rgb(125, 128, 209)" />
    <polygon points="50,50 75,95 95,75" style="fill: rgb(221, 69, 157)" />
    <polygon points="50,50 95,75 95,25" style="fill: rgb(242, 55, 73)" />
    <polygon points="50,50 75,5 95,25" style="fill: rgb(213, 101, 0)" />
    <polygon points="50,50 25,5 75,5" style="fill: rgb(172, 131, 0)" />
  </g>
</svg>
